# xmcd CD database file
#
# Track frame offsets:
#	52036
#	64956
#	76258
#	86723
#	97288
#	107731
#	125723
#	141561
#	151923
#	164763
#	173086
#	184421
#	194073
#	216061
#	232771
#	246388
#	267791
#	286991
#	297668
#
# Disc length: 4174 seconds
#
# Revision: 0
# Processed by: cddbd v1.5.2PL0 Copyright (c) Steve Scherf et al.
# Submitted via: CDex 1.51
#
DISCID=400d9913
DTITLE=Nancy Enslin - Celestial Shores
DYEAR=1998
DGENRE=New Age
TTITLE0=All Through The Night (Welsh melody)
TTITLE1=Lord Galway's Lamentation
TTITLE2=Farewell (Scottish Melody)
TTITLE3=The Grenadier and the Lady (English Melody)
TTITLE4=Album Leaf
TTITLE5=It's A Gift to be Simple (Shaker Melody)
TTITLE6=Largo (Handel)
TTITLE7=Finlandia (Sibelius)
TTITLE8=Erev Ba (Aryeh Levanson)
TTITLE9=Erev Shel Shashanim (J. Hadar)
TTITLE10=Arpeggios (Enslin)
TTITLE11=Bashana Haba-A (N.Hirsh)
TTITLE12=Pavan (Faure)
TTITLE13=Hymne (Vangelis)
TTITLE14=O Sanctissima (Sicilian Melody)
TTITLE15=Arioso (Bach)
TTITLE16=Canon (Pachelbel)
TTITLE17=Andante (Gluck)
TTITLE18=Pavan (Spanish Melody)
EXTD=YEAR: 1998
EXTT0=
EXTT1=
EXTT2=
EXTT3=
EXTT4=
EXTT5=
EXTT6=
EXTT7=
EXTT8=
EXTT9=
EXTT10=
EXTT11=
EXTT12=
EXTT13=
EXTT14=
EXTT15=
EXTT16=
EXTT17=
EXTT18=
PLAYORDER=
